# Blender 4.4.3
# www.blender.org
mtllib KLASHSIGNPOST.mtl
o sign2
v -1.425035 0.109353 1.098042
v 1.425035 0.109353 1.098042
v -1.425035 1.890647 1.098043
v 1.425035 1.890647 1.098043
v -1.425035 1.890647 0.770820
v -1.425035 0.109353 0.770819
v 1.425035 0.109353 0.770819
v 1.425035 1.890647 0.770820
v -1.425035 0.109353 1.098042
v 1.425035 0.109353 1.098042
v -1.425035 1.890647 1.098043
v 1.425035 1.890647 1.098043
v -1.425035 1.890647 0.770820
v -1.425035 0.109353 0.770819
v 1.425035 0.109353 0.770819
v 1.425035 1.890647 0.770820
v 0.017792 -1.214309 0.819276
v 0.017792 -1.214309 0.819276
v 0.017792 -1.214309 0.819276
v 0.017792 1.954821 0.819276
v 0.017792 1.954821 0.819276
v 0.017792 1.954821 0.819276
v 0.095894 -1.214309 0.851627
v 0.095894 -1.214309 0.851627
v 0.095894 1.954821 0.851627
v 0.095894 1.954821 0.851627
v 0.128244 -1.214309 0.929728
v 0.128244 -1.214309 0.929728
v 0.128244 1.954821 0.929728
v 0.128244 1.954821 0.929728
v 0.095894 -1.214309 1.007829
v 0.095894 -1.214309 1.007829
v 0.095894 1.954821 1.007829
v 0.095894 1.954821 1.007829
v 0.017792 -1.214309 1.040180
v 0.017792 -1.214309 1.040180
v 0.017792 1.954821 1.040180
v 0.017792 1.954821 1.040180
v -0.060309 -1.214309 1.007829
v -0.060309 -1.214309 1.007829
v -0.060309 1.954821 1.007829
v -0.060309 1.954821 1.007829
v -0.092659 -1.214309 0.929728
v -0.092659 -1.214309 0.929728
v -0.092659 1.954821 0.929728
v -0.092659 1.954821 0.929728
v -0.060309 -1.214309 0.851627
v -0.060309 -1.214309 0.851627
v -0.060309 1.954821 0.851627
v -0.060309 1.954821 0.851627
vn 0.5774 0.5773 -0.5774
vn 0.5773 -0.5774 -0.5774
vn -0.5774 -0.5773 -0.5774
vn -0.5773 0.5774 -0.5774
vn 0.5773 0.5774 0.5774
vn -0.5774 0.5773 0.5774
vn -0.5773 -0.5774 0.5774
vn 0.5774 -0.5773 0.5774
vn 0.5773 -0.5773 -0.5774
vn 0.5773 -0.5773 0.5774
vn -0.5773 -0.5773 0.5774
vn 0.5773 0.5773 -0.5774
vn -0.5773 0.5773 -0.5774
vn 0.5773 0.5773 0.5774
vn -0.0000 -0.6303 -0.7763
vn -0.0001 0.6303 -0.7764
vn 0.5490 0.6303 -0.5490
vn 0.5490 -0.6303 -0.5490
vn 0.7763 0.6303 -0.0000
vn 0.7763 -0.6303 -0.0000
vn 0.5490 0.6303 0.5490
vn 0.5490 -0.6303 0.5490
vn -0.0000 0.6303 0.7763
vn -0.0000 -0.6303 0.7763
vn -0.5490 0.6303 0.5490
vn -0.5490 -0.6303 0.5490
vn -0.7763 0.6303 -0.0000
vn -0.7763 -0.6303 -0.0000
vn 0.7764 0.6303 0.0001
vn 0.5490 0.6302 -0.5489
vn 0.0001 0.6303 -0.7764
vn -0.5489 0.6303 -0.5490
vn -0.7764 0.6303 -0.0001
vn -0.5490 0.6303 0.5489
vn -0.0001 0.6303 0.7764
vn 0.5489 0.6302 0.5490
vn -0.5490 0.6303 -0.5490
vn -0.5490 -0.6303 -0.5490
vn -0.0000 0.6303 -0.7763
vn 0.0001 -0.6303 -0.7764
vn -0.5490 -0.6303 -0.5489
vn -0.0001 -0.6303 -0.7764
vn 0.5489 -0.6303 -0.5490
vn 0.7764 -0.6303 -0.0001
vn 0.5490 -0.6303 0.5489
vn 0.0001 -0.6303 0.7764
vn -0.5489 -0.6303 0.5490
vn -0.7764 -0.6303 0.0001
vt 0.000000 0.000000
vt 0.000000 1.000000
vt 1.000000 1.000000
vt 1.000000 0.000000
vt 1.000000 0.500000
vt 0.875000 1.000000
vt 0.875000 0.500000
vt 0.750000 1.000000
vt 0.750000 0.500000
vt 0.625000 1.000000
vt 0.625000 0.500000
vt 0.500000 1.000000
vt 0.500000 0.500000
vt 0.375000 1.000000
vt 0.375000 0.500000
vt 0.250000 1.000000
vt 0.250000 0.500000
vt 0.490000 0.250000
vt 0.419705 0.419706
vt 0.250000 0.490000
vt 0.080294 0.419706
vt 0.010000 0.250000
vt 0.080294 0.080294
vt 0.250000 0.010000
vt 0.419705 0.080294
vt 0.125000 1.000000
vt 0.125000 0.500000
vt 0.000000 0.500000
vt 0.580294 0.419706
vt 0.750000 0.490000
vt 0.919705 0.419706
vt 0.990000 0.250000
vt 0.919705 0.080294
vt 0.750000 0.010000
vt 0.580294 0.080294
vt 0.510000 0.250000
s 1
usemtl sign2
f 1/1/1 3/2/2 4/3/3
f 1/1/1 4/3/3 2/4/4
usemtl Material.016
f 6/1/5 7/4/6 8/3/7
f 6/1/5 8/3/7 5/2/8
usemtl Material.017
f 12/3/3 11/2/9 13/2/10
f 12/3/3 13/2/10 16/3/11
f 9/1/12 10/4/13 15/4/6
f 9/1/12 15/4/6 14/1/14
f 10/4/13 12/3/3 16/3/11
f 10/4/13 16/3/11 15/4/6
f 11/2/9 9/1/12 14/1/14
f 11/2/9 14/1/14 13/2/10
f 19/5/15 22/3/16 26/6/17
f 19/5/15 26/6/17 23/7/18
f 23/7/18 26/6/17 30/8/19
f 23/7/18 30/8/19 27/9/20
f 27/9/20 30/8/19 34/10/21
f 27/9/20 34/10/21 31/11/22
f 31/11/22 34/10/21 38/12/23
f 31/11/22 38/12/23 35/13/24
f 35/13/24 38/12/23 42/14/25
f 35/13/24 42/14/25 39/15/26
f 39/15/26 42/14/25 46/16/27
f 39/15/26 46/16/27 43/17/28
f 29/18/29 25/19/30 21/20/31
f 21/20/31 49/21/32 45/22/33
f 45/22/33 41/23/34 37/24/35
f 37/24/35 33/25/36 29/18/29
f 29/18/29 21/20/31 45/22/33
f 45/22/33 37/24/35 29/18/29
f 43/17/28 46/16/27 50/26/37
f 43/17/28 50/26/37 47/27/38
f 47/27/38 50/26/37 20/2/39
f 47/27/38 20/2/39 17/28/40
f 48/29/41 18/30/42 24/31/43
f 24/31/43 28/32/44 32/33/45
f 32/33/45 36/34/46 40/35/47
f 40/35/47 44/36/48 48/29/41
f 48/29/41 24/31/43 32/33/45
f 32/33/45 40/35/47 48/29/41
