# Blender 4.4.3
# www.blender.org
mtllib KLASH SPRING YELLOW.mtl
o Springyellow
v -0.040342 -0.019785 -1.157222
v -0.616129 -0.019785 -1.002941
v -1.037635 -0.019785 -0.581435
v -1.191916 -0.019785 -0.005648
v -1.037635 -0.019785 0.570139
v -0.616129 -0.019785 0.991644
v -0.040342 -0.019785 1.145926
v 0.535444 -0.019785 0.991644
v 0.956950 -0.019785 0.570139
v 1.111231 -0.019785 -0.005648
v 0.956950 -0.019785 -0.581435
v 0.535444 -0.019785 -1.002941
v 0.465194 -0.019785 -0.319255
v -0.321346 -0.019785 -0.530008
v 0.240661 -0.019785 0.518711
v -0.545878 -0.019785 0.307959
v -0.616129 0.369722 -1.002941
v -0.040342 0.369722 -1.157222
v -1.037635 0.369722 -0.581435
v -1.191916 0.369722 -0.005648
v -1.037635 0.369722 0.570139
v -0.616129 0.369722 0.991644
v -0.040342 0.369722 1.145926
v 0.535444 0.369722 0.991644
v 0.956950 0.369722 0.570139
v 1.111231 0.369722 -0.005648
v 0.956950 0.369722 -0.581435
v 0.535444 0.369722 -1.002941
v 0.465194 0.369722 -0.319255
v 0.240661 0.369722 0.518711
v -0.321346 0.369722 -0.530008
v -0.545878 0.369722 0.307959
v -0.040343 0.358014 -0.720984
v -0.398010 0.358014 -0.625147
v -0.659841 0.358014 -0.363316
v -0.755678 0.358014 -0.005648
v -0.659841 0.358014 0.352019
v -0.398010 0.358014 0.613850
v -0.040343 0.358014 0.709687
v 0.317325 0.358014 0.613850
v 0.579156 0.358014 0.352019
v 0.674993 0.358014 -0.005648
v 0.579156 0.358014 -0.363316
v 0.317325 0.358014 -0.625147
v 0.273687 0.358014 -0.200455
v -0.214897 0.358014 -0.331370
v 0.134211 0.358014 0.320074
v -0.354372 0.358014 0.189158
v -0.398010 0.812953 -0.625147
v -0.040343 0.812953 -0.720984
v -0.659841 0.812953 -0.363316
v -0.755678 0.812953 -0.005648
v -0.659841 0.812953 0.352019
v -0.398010 0.812953 0.613850
v -0.040343 0.812953 0.709687
v 0.317325 0.812953 0.613850
v 0.579156 0.812953 0.352019
v 0.674993 0.812953 -0.005648
v 0.579156 0.812953 -0.363316
v 0.317325 0.812953 -0.625147
v 0.273687 0.812953 -0.200455
v 0.134211 0.812953 0.320074
v -0.214897 0.812953 -0.331370
v -0.354372 0.812953 0.189158
v -0.040342 0.698348 -1.462264
v -0.768650 0.698348 -1.267115
v -1.301809 0.698348 -0.733956
v -1.496958 0.698348 -0.005648
v -1.301809 0.698348 0.722660
v -0.768650 0.698348 1.255818
v -0.040342 0.698348 1.450967
v 0.687966 0.698348 1.255818
v 1.221124 0.698348 0.722660
v 1.416273 0.698348 -0.005648
v 1.221124 0.698348 -0.733956
v 0.687966 0.698348 -1.267115
v 0.599106 0.698348 -0.402327
v -0.395782 0.698348 -0.668906
v 0.315097 0.698348 0.657610
v -0.679790 0.698348 0.391031
v -0.768650 1.518715 -1.267115
v -0.040342 1.518715 -1.462264
v -1.301809 1.518715 -0.733956
v -1.496958 1.518715 -0.005648
v -1.301809 1.518715 0.722660
v -0.768650 1.518715 1.255818
v -0.040342 1.518715 1.450967
v 0.687966 1.518715 1.255818
v 1.221124 1.518715 0.722660
v 1.416273 1.518715 -0.005648
v 1.221124 1.518715 -0.733956
v 0.687966 1.518715 -1.267115
v 0.599106 1.518715 -0.402327
v 0.315097 1.518715 0.657610
v -0.395782 1.518715 -0.668906
v -0.679790 1.518715 0.391031
vn 0.3786 -0.6532 -0.6557
vn 0.6557 -0.6532 -0.3786
vn 0.7572 -0.6532 -0.0000
vn -0.0000 -1.0000 -0.0000
vn 0.6557 -0.6532 0.3786
vn 0.3786 -0.6532 0.6557
vn -0.0000 -0.6532 0.7572
vn -0.0000 -0.6532 -0.7572
vn -0.3786 -0.6532 0.6557
vn -0.3786 -0.6532 -0.6557
vn -0.6557 -0.6532 -0.3786
vn -0.7572 -0.6532 -0.0000
vn -0.6557 -0.6532 0.3786
vn 0.3786 0.6532 -0.6557
vn -0.0000 1.0000 -0.0000
vn 0.7572 0.6532 -0.0000
vn 0.6557 0.6532 -0.3786
vn 0.6557 0.6532 0.3786
vn -0.0000 0.6532 0.7572
vn 0.3786 0.6532 0.6557
vn -0.0000 0.6532 -0.7572
vn -0.3786 0.6532 0.6557
vn -0.3786 0.6532 -0.6557
vn -0.6557 0.6532 -0.3786
vn -0.7572 0.6532 -0.0000
vn -0.6557 0.6532 0.3786
vt 0.000000 0.000000
s 1
usemtl Material.004
f 12/1/1 11/1/2 10/1/3
f 12/1/1 10/1/3 13/1/4
f 13/1/4 10/1/3 9/1/5
f 13/1/4 9/1/5 15/1/4
f 15/1/4 9/1/5 8/1/6
f 15/1/4 8/1/6 7/1/7
f 1/1/8 12/1/1 13/1/4
f 1/1/8 13/1/4 14/1/4
s 0
f 14/1/4 13/1/4 15/1/4
f 14/1/4 15/1/4 16/1/4
s 1
f 16/1/4 15/1/4 7/1/7
f 16/1/4 7/1/7 6/1/9
f 2/1/10 1/1/8 14/1/4
f 2/1/10 14/1/4 3/1/11
f 3/1/11 14/1/4 16/1/4
f 3/1/11 16/1/4 4/1/12
f 4/1/12 16/1/4 6/1/9
f 4/1/12 6/1/9 5/1/13
f 28/1/14 29/1/15 26/1/16
f 28/1/14 26/1/16 27/1/17
f 29/1/15 30/1/15 25/1/18
f 29/1/15 25/1/18 26/1/16
f 30/1/15 23/1/19 24/1/20
f 30/1/15 24/1/20 25/1/18
f 18/1/21 31/1/15 29/1/15
f 18/1/21 29/1/15 28/1/14
s 0
f 31/1/15 32/1/15 30/1/15
f 31/1/15 30/1/15 29/1/15
s 1
f 32/1/15 22/1/22 23/1/19
f 32/1/15 23/1/19 30/1/15
f 17/1/23 19/1/24 31/1/15
f 17/1/23 31/1/15 18/1/21
f 19/1/24 20/1/25 32/1/15
f 19/1/24 32/1/15 31/1/15
f 20/1/25 21/1/26 22/1/22
f 20/1/25 22/1/22 32/1/15
f 4/1/12 5/1/13 21/1/26
f 4/1/12 21/1/26 20/1/25
f 11/1/2 12/1/1 28/1/14
f 11/1/2 28/1/14 27/1/17
f 1/1/8 2/1/10 17/1/23
f 1/1/8 17/1/23 18/1/21
f 8/1/6 9/1/5 25/1/18
f 8/1/6 25/1/18 24/1/20
f 5/1/13 6/1/9 22/1/22
f 5/1/13 22/1/22 21/1/26
f 12/1/1 1/1/8 18/1/21
f 12/1/1 18/1/21 28/1/14
f 2/1/10 3/1/11 19/1/24
f 2/1/10 19/1/24 17/1/23
f 9/1/5 10/1/3 26/1/16
f 9/1/5 26/1/16 25/1/18
f 6/1/9 7/1/7 23/1/19
f 6/1/9 23/1/19 22/1/22
f 3/1/11 4/1/12 20/1/25
f 3/1/11 20/1/25 19/1/24
f 10/1/3 11/1/2 27/1/17
f 10/1/3 27/1/17 26/1/16
f 7/1/7 8/1/6 24/1/20
f 7/1/7 24/1/20 23/1/19
usemtl Material.010
f 44/1/1 43/1/2 42/1/3
f 44/1/1 42/1/3 45/1/4
f 45/1/4 42/1/3 41/1/5
f 45/1/4 41/1/5 47/1/4
f 47/1/4 41/1/5 40/1/6
f 47/1/4 40/1/6 39/1/7
f 33/1/8 44/1/1 45/1/4
f 33/1/8 45/1/4 46/1/4
s 0
f 46/1/4 45/1/4 47/1/4
f 46/1/4 47/1/4 48/1/4
s 1
f 48/1/4 47/1/4 39/1/7
f 48/1/4 39/1/7 38/1/9
f 34/1/10 33/1/8 46/1/4
f 34/1/10 46/1/4 35/1/11
f 35/1/11 46/1/4 48/1/4
f 35/1/11 48/1/4 36/1/12
f 36/1/12 48/1/4 38/1/9
f 36/1/12 38/1/9 37/1/13
f 60/1/14 61/1/15 58/1/16
f 60/1/14 58/1/16 59/1/17
f 61/1/15 62/1/15 57/1/18
f 61/1/15 57/1/18 58/1/16
f 62/1/15 55/1/19 56/1/20
f 62/1/15 56/1/20 57/1/18
f 50/1/21 63/1/15 61/1/15
f 50/1/21 61/1/15 60/1/14
s 0
f 63/1/15 64/1/15 62/1/15
f 63/1/15 62/1/15 61/1/15
s 1
f 64/1/15 54/1/22 55/1/19
f 64/1/15 55/1/19 62/1/15
f 49/1/23 51/1/24 63/1/15
f 49/1/23 63/1/15 50/1/21
f 51/1/24 52/1/25 64/1/15
f 51/1/24 64/1/15 63/1/15
f 52/1/25 53/1/26 54/1/22
f 52/1/25 54/1/22 64/1/15
f 36/1/12 37/1/13 53/1/26
f 36/1/12 53/1/26 52/1/25
f 43/1/2 44/1/1 60/1/14
f 43/1/2 60/1/14 59/1/17
f 33/1/8 34/1/10 49/1/23
f 33/1/8 49/1/23 50/1/21
f 40/1/6 41/1/5 57/1/18
f 40/1/6 57/1/18 56/1/20
f 37/1/13 38/1/9 54/1/22
f 37/1/13 54/1/22 53/1/26
f 44/1/1 33/1/8 50/1/21
f 44/1/1 50/1/21 60/1/14
f 34/1/10 35/1/11 51/1/24
f 34/1/10 51/1/24 49/1/23
f 41/1/5 42/1/3 58/1/16
f 41/1/5 58/1/16 57/1/18
f 38/1/9 39/1/7 55/1/19
f 38/1/9 55/1/19 54/1/22
f 35/1/11 36/1/12 52/1/25
f 35/1/11 52/1/25 51/1/24
f 42/1/3 43/1/2 59/1/17
f 42/1/3 59/1/17 58/1/16
f 39/1/7 40/1/6 56/1/20
f 39/1/7 56/1/20 55/1/19
usemtl Material.011
f 76/1/1 75/1/2 74/1/3
f 76/1/1 74/1/3 77/1/4
f 77/1/4 74/1/3 73/1/5
f 77/1/4 73/1/5 79/1/4
f 79/1/4 73/1/5 72/1/6
f 79/1/4 72/1/6 71/1/7
f 65/1/8 76/1/1 77/1/4
f 65/1/8 77/1/4 78/1/4
s 0
f 78/1/4 77/1/4 79/1/4
f 78/1/4 79/1/4 80/1/4
s 1
f 80/1/4 79/1/4 71/1/7
f 80/1/4 71/1/7 70/1/9
f 66/1/10 65/1/8 78/1/4
f 66/1/10 78/1/4 67/1/11
f 67/1/11 78/1/4 80/1/4
f 67/1/11 80/1/4 68/1/12
f 68/1/12 80/1/4 70/1/9
f 68/1/12 70/1/9 69/1/13
f 92/1/14 93/1/15 90/1/16
f 92/1/14 90/1/16 91/1/17
f 93/1/15 94/1/15 89/1/18
f 93/1/15 89/1/18 90/1/16
f 94/1/15 87/1/19 88/1/20
f 94/1/15 88/1/20 89/1/18
f 82/1/21 95/1/15 93/1/15
f 82/1/21 93/1/15 92/1/14
s 0
f 95/1/15 96/1/15 94/1/15
f 95/1/15 94/1/15 93/1/15
s 1
f 96/1/15 86/1/22 87/1/19
f 96/1/15 87/1/19 94/1/15
f 81/1/23 83/1/24 95/1/15
f 81/1/23 95/1/15 82/1/21
f 83/1/24 84/1/25 96/1/15
f 83/1/24 96/1/15 95/1/15
f 84/1/25 85/1/26 86/1/22
f 84/1/25 86/1/22 96/1/15
f 68/1/12 69/1/13 85/1/26
f 68/1/12 85/1/26 84/1/25
f 75/1/2 76/1/1 92/1/14
f 75/1/2 92/1/14 91/1/17
f 65/1/8 66/1/10 81/1/23
f 65/1/8 81/1/23 82/1/21
f 72/1/6 73/1/5 89/1/18
f 72/1/6 89/1/18 88/1/20
f 69/1/13 70/1/9 86/1/22
f 69/1/13 86/1/22 85/1/26
f 76/1/1 65/1/8 82/1/21
f 76/1/1 82/1/21 92/1/14
f 66/1/10 67/1/11 83/1/24
f 66/1/10 83/1/24 81/1/23
f 73/1/5 74/1/3 90/1/16
f 73/1/5 90/1/16 89/1/18
f 70/1/9 71/1/7 87/1/19
f 70/1/9 87/1/19 86/1/22
f 67/1/11 68/1/12 84/1/25
f 67/1/11 84/1/25 83/1/24
f 74/1/3 75/1/2 91/1/17
f 74/1/3 91/1/17 90/1/16
f 71/1/7 72/1/6 88/1/20
f 71/1/7 88/1/20 87/1/19
